<?xml version="1.0" standalone="no"?>
<!DOCTYPE svg PUBLIC "-//W3C//DTD SVG 1.1//EN" "http://www.w3.org/Graphics/SVG/1.1/DTD/svg11.dtd">
<svg xmlns="http://www.w3.org/2000/svg" id="Laag_1" version="1.1" viewBox="0 0 283.5 113.4" width="283.5" height="113.4000015258789">
  <!-- Generator: Adobe Illustrator 29.4.0, SVG Export Plug-In . SVG Version: 2.1.0 Build 152)  -->
  <defs>
    <style>
      .st0 {
        fill: #765742;
      }

      .st1, .st2, .st3 {
        fill-rule: evenodd;
      }

      .st1, .st4 {
        fill: #006d33;
      }

      .st2, .st5 {
        fill: #ef7d00;
      }

      .st3, .st6 {
        fill: #95c11f;
      }
    </style>
  </defs>
  <g>
    <path class="st4" d="M51.3,6.6h10c3.9,0,6.8.6,8.7,1.7,1.9,1.2,2.8,3,2.8,5.4s-.4,3-1.2,4.1c-.8,1.1-1.9,1.9-3.3,2.2v.2c1.8.5,3.1,1.3,3.9,2.4.8,1.1,1.2,2.5,1.2,4.3,0,2.6-1,4.7-2.9,6.2-2,1.5-4.6,2.3-8,2.3h-11.2V6.6ZM59.1,17.6h2.3c1.1,0,2-.2,2.6-.7.6-.5.9-1.1.9-2,0-1.6-1.2-2.4-3.7-2.4h-2.2v5.2ZM59.1,23.3v6h2.7c2.4,0,3.6-1,3.6-3.1s-.3-1.7-1-2.2c-.6-.5-1.6-.8-2.8-.8h-2.6Z"/>
    <path class="st4" d="M76.7,7.5c0-1.2.3-2,1-2.6s1.7-.8,3.1-.8,2.5.3,3.1.9c.7.6,1,1.4,1,2.6,0,2.3-1.4,3.4-4.1,3.4s-4.1-1.1-4.1-3.4ZM84.6,35.4h-7.7V13.1h7.7v22.3Z"/>
    <path class="st4" d="M102.8,35.4v-12.2c0-1.5-.2-2.6-.6-3.4-.4-.8-1.1-1.1-2.1-1.1s-2.2.5-2.8,1.6c-.6,1-.9,2.8-.9,5.3v9.8h-7.7V13.1h5.8l1,2.8h.5c.7-1,1.6-1.8,2.7-2.4s2.5-.8,4-.8c2.5,0,4.4.7,5.8,2.1,1.4,1.4,2.1,3.4,2.1,6v14.5h-7.7Z"/>
    <path class="st4" d="M114.5,35.4v-14.5c0-2.6.7-4.6,2.1-6,1.4-1.4,3.3-2.1,5.8-2.1s2.8.3,4,.8,2.1,1.3,2.7,2.4h.5s1-2.8,1-2.8h5.8v22.3h-7.7v-9.8c0-2.5-.3-4.3-.9-5.3-.6-1-1.5-1.6-2.8-1.6s-1.6.4-2.1,1.1c-.4.8-.6,1.9-.6,3.4v12.2h-7.7Z"/>
    <path class="st4" d="M151.1,35.7c-3.7,0-6.6-1-8.6-3-2.1-2-3.1-4.8-3.1-8.4s1-6.7,2.9-8.7c1.9-2,4.6-3,8.1-3s6,.9,7.8,2.6c1.8,1.8,2.7,4.3,2.7,7.6v3.4h-13.8c0,1.2.5,2.2,1.4,2.9.9.7,2,1.1,3.5,1.1s2.6-.1,3.7-.4,2.4-.7,3.7-1.3v5.5c-1.2.6-2.5,1-3.7,1.3-1.3.2-2.8.4-4.6.4ZM150.6,17.9c-.9,0-1.7.3-2.3.9-.6.6-1,1.5-1.1,2.7h6.6c0-1.1-.3-1.9-.9-2.6s-1.4-1-2.4-1Z"/>
    <path class="st4" d="M178.1,35.4v-12.2c0-1.5-.2-2.6-.6-3.4-.4-.8-1.1-1.1-2.1-1.1s-2.2.5-2.8,1.6c-.6,1-.9,2.8-.9,5.3v9.8h-7.7V13.1h5.8l1,2.8h.5c.7-1,1.6-1.8,2.7-2.4s2.5-.8,4-.8c2.5,0,4.4.7,5.8,2.1,1.4,1.4,2.1,3.4,2.1,6v14.5h-7.7Z"/>
    <path class="st4" d="M207.1,28.5c0,2.4-.8,4.2-2.4,5.4s-4,1.8-7,1.8-3.1,0-4.3-.3c-1.2-.2-2.5-.5-3.7-1v-6.2c1.2.5,2.5,1,3.9,1.3,1.4.3,2.7.5,3.8.5,1.7,0,2.5-.4,2.5-1.1s-.2-.7-.7-1.1-1.8-.9-4.1-1.8c-2-.8-3.5-1.8-4.3-2.9s-1.2-2.4-1.2-4.1.8-3.7,2.4-4.8c1.6-1.2,3.9-1.7,6.8-1.7s2.9.2,4.1.5c1.3.3,2.6.8,4,1.4l-2.1,5c-1-.5-2.1-.8-3.2-1.2s-2.1-.5-2.8-.5c-1.3,0-1.9.3-1.9.9s.2.7.7,1,1.7.8,3.8,1.6c1.6.6,2.7,1.3,3.5,1.9.8.6,1.3,1.3,1.7,2.2.4.8.5,1.8.5,3Z"/>
    <path class="st4" d="M221,29.7c1,0,2.3-.3,3.7-.8v5.6c-1,.4-2,.8-3,1-.9.2-2,.3-3.3.3-2.6,0-4.4-.6-5.6-1.9-1.1-1.3-1.7-3.2-1.7-5.8v-9.2h-2.7v-3.1l3.4-2.4,2-4.7h5v4.5h5.5v5.8h-5.5v8.7c0,1.4.7,2.2,2.1,2.2Z"/>
    <path class="st4" d="M238.2,35.7c-3.7,0-6.6-1-8.6-3-2.1-2-3.1-4.8-3.1-8.4s1-6.7,2.9-8.7,4.6-3,8.1-3,6,.9,7.8,2.6,2.7,4.3,2.7,7.6v3.4h-13.8c0,1.2.5,2.2,1.4,2.9.9.7,2,1.1,3.5,1.1s2.6-.1,3.7-.4,2.4-.7,3.7-1.3v5.5c-1.2.6-2.5,1-3.7,1.3s-2.8.4-4.6.4ZM237.8,17.9c-.9,0-1.7.3-2.3.9s-1,1.5-1.1,2.7h6.6c0-1.1-.3-1.9-.9-2.6-.6-.6-1.4-1-2.4-1Z"/>
  </g>
  <g>
    <path class="st5" d="M13.9,35.1v-17.5h1.2v17.5h-1.2Z"/>
    <path class="st5" d="M31.2,35.1h-1.5l-6.7-9.2-2.3,2.1v7.2h-1.2v-17.5h1.2v9.1l1.9-1.9,6.9-7.2h1.6l-7.2,7.4,7.4,10.1Z"/>
    <path class="st5" d="M40.4,18.5c-2.2,0-3.9.7-5.2,2.1-1.3,1.4-1.9,3.3-1.9,5.8s.6,4.4,1.8,5.8,2.9,2.1,5.1,2.1,2.8-.2,4-.6v1.1c-1.2.4-2.6.6-4.3.6-2.5,0-4.4-.8-5.8-2.4s-2.1-3.8-2.1-6.7.3-3.3,1-4.7c.7-1.4,1.6-2.4,2.9-3.1,1.3-.7,2.7-1.1,4.4-1.1s3.2.3,4.6,1l-.5,1.1c-1.3-.6-2.6-1-4-1Z"/>
  </g>
  <g>
    <path class="st6" d="M14.7,49.4c-.3-.8.2-1.6.9-1.8l8.9-3c4-1.3,7.2-1.7,9.6-1.2,2.3.5,3.9,2.1,4.8,4.6.6,1.7.6,3.2.1,4.7-.5,1.5-1.3,2.6-2.6,3.4v.2c2.1-.1,3.7.2,4.9,1.1s2.1,2.2,2.7,4c.9,2.7.6,5.1-.9,7.4-1.5,2.2-4,3.9-7.5,5.1l-10.1,3.4c-.8.3-1.6-.2-1.8-.9l-9-26.8ZM25.6,55.3c.3.8,1.1,1.2,1.8.9l1-.3c1.1-.4,2-.9,2.4-1.6.5-.7.5-1.5.2-2.4-.6-1.7-2.1-2.1-4.6-1.2l-.9.3c-.8.3-1.2,1.1-.9,1.8l.8,2.5ZM28.5,63.9l1.1,3.4c.3.8,1.1,1.2,1.8.9l1.4-.5c2.5-.8,3.4-2.3,2.7-4.4-.3-1-.9-1.6-1.8-1.9s-1.9-.2-3.2.2l-1.3.4c-.8.3-1.2,1.1-.9,1.8Z"/>
    <path class="st6" d="M66,72.9c-.6,0-1.1-.5-1.3-1.1l-.5-2.1h-.5c-.8,1-1.8,1.8-3.1,2.2-1.3.5-2.8.6-4.4.5-2.6-.2-4.6-1.2-6-2.9-1.3-1.7-1.9-3.9-1.6-6.7l1.3-14.2c0-.8.8-1.4,1.6-1.3l5.4.5c.8,0,1.4.8,1.3,1.6l-1.1,11.7c-.1,1.6,0,2.8.3,3.6s1.1,1.3,2.1,1.4c1.4.1,2.5-.3,3.2-1.4.7-1.1,1.2-2.9,1.4-5.6l.9-9.1c0-.8.8-1.4,1.6-1.3l5.4.5c.8,0,1.4.8,1.3,1.6l-2,21.2c0,.8-.8,1.4-1.6,1.3l-3.8-.4Z"/>
    <path class="st6" d="M103.1,69.6c.7,0,1.4,0,2.3,0s1.7.7,1.6,1.6l-.4,3.1c0,.6-.5,1.1-1.1,1.3s-1.6.3-2.3.4c-1,0-2.2,0-3.6-.1-2.8-.3-4.7-1.3-5.8-2.8-1.1-1.5-1.4-3.7-1.1-6.5l1.1-8.4c.1-.8-.5-1.5-1.3-1.6h0c-.8-.1-1.4-.8-1.3-1.6v-1.2c.2-.5.5-.9.9-1.1l3-1.6c.2-.1.4-.3.6-.6l2.1-3.6c.3-.5.9-.8,1.4-.7l3,.4c.8.1,1.4.8,1.3,1.6l-.2,1.9c-.1.8.5,1.5,1.3,1.6l3,.4c.8.1,1.4.8,1.3,1.6l-.4,3.3c-.1.8-.8,1.4-1.6,1.3l-3-.4c-.8-.1-1.5.5-1.6,1.3l-1,7.9c-.2,1.6.5,2.4,2,2.6Z"/>
    <path class="st6" d="M128,73.3c-3.9,1-7.2.7-9.9-.8-2.7-1.5-4.5-4.2-5.5-8-1-4-.8-7.2.6-9.9,1.5-2.6,4-4.4,7.7-5.4,3.5-.9,6.5-.7,8.9.7,2.4,1.3,4,3.7,4.9,7.2l.6,2.2c.2.8-.3,1.6-1.1,1.8l-11.2,2.9c-1.1.3-1.5,1.7-.6,2.5s.6.5,1,.7c1.1.5,2.4.6,4,.2,1.4-.4,2.7-.8,3.8-1.4.6-.3,1.2-.7,1.8-1.1s2-.1,2.2.8l.7,2.8c.1.5,0,1.1-.5,1.5-.9.7-1.9,1.3-2.9,1.8-1.3.6-2.9,1.1-4.7,1.6ZM122.7,54.7c-1,.2-1.7.8-2.2,1.5s-.3.6-.4.9c-.2,1,.8,2,1.8,1.7l3.4-.9c1.1-.3,1.5-1.7.7-2.5s-.4-.3-.6-.5c-.8-.5-1.7-.6-2.7-.4Z"/>
    <path class="st6" d="M155.9,73.7c-.8-.1-1.3-.9-1.2-1.7l1.8-11.6c.3-1.6.2-2.8-.1-3.7-.3-.9-1-1.4-2-1.6-1.4-.2-2.5.2-3.3,1.2-.8,1-1.4,2.9-1.8,5.6l-1.4,9c-.1.8-.9,1.3-1.7,1.2l-5.4-.9c-.8-.1-1.3-.9-1.2-1.7l3.3-21c.1-.8.9-1.3,1.7-1.2l3.7.6c.6,0,1.1.6,1.2,1.2l.4,2.1h.5c.9-.9,2-1.6,3.3-2,1.3-.4,2.8-.4,4.4-.2,2.6.4,4.6,1.5,5.8,3.3,1.2,1.8,1.6,4,1.2,6.8l-2.2,14.1c-.1.8-.9,1.3-1.7,1.2l-5.4-.9Z"/>
    <path class="st6" d="M76.7,44.6c-.1-1.2,0-2.1.7-2.8.6-.7,1.6-1.1,3.1-1.3,1.5-.2,2.6,0,3.4.5.8.5,1.2,1.4,1.3,2.5.3,2.3-1,3.7-3.9,4-2.8.3-4.4-.7-4.6-3ZM86.9,72.7l-5.2.6c-.8,0-1.5-.5-1.6-1.2l-2.4-20.4c0-.8.5-1.5,1.2-1.6l5.2-.6c.8,0,1.5.5,1.6,1.2l2.4,20.4c0,.8-.5,1.5-1.2,1.6Z"/>
  </g>
  <g>
    <path class="st3" d="M197.3,84.2c.8,3.5-1.7,9.2,1.4,14.6,3.2,5.5,12.9,6.4,16.4,9.8-2-6.1-.7-11.9-5.1-16.6-2.3-2.5-7.3-6.8-12.8-7.7Z"/>
    <path class="st3" d="M195.7,80.1c-2.6,2.4-2.3,5.7-5.9,9-2.3,2.1-8.6,4.5-11.1,7,2.2-4.2,1.8-7.8,4.1-10.9,2.5-3.4,8-3.9,12.9-5Z"/>
    <path class="st2" d="M201.4,79.6c2.3.9,2.7,2.7,4.9,3.8,3.9,1.9,6.5.8,9.1,2.3-2.3-2.8-2.3-4.8-5.3-6.1-2.7-1.1-5.2,0-8.7,0Z"/>
    <path class="st1" d="M211.2,45.7c-3.4,2.7-7.9,1.3-11.5,4.4-5.7,4.8-4.2,5.8-8.1,8.3,4.4-.7,8.4,1.3,13.6-2.4,4.9-3.4,3.5-5.8,6-10.3Z"/>
    <path class="st3" d="M236.2,75.7c-1.6-2.6-5.4-1.2-8.4-6.1-2.1-3.4,0-5.1-1-9.7,2.7,3.5,6.1,4.1,7.6,5.8,3.7,4,1.8,6,1.8,9.9Z"/>
    <path class="st1" d="M175.3,64.8c.8,2.6-.5,4.8.9,7.7,2.1,4.4,5,5.1,6.5,7.4-.3-3.6,1.5-5.9.4-8.9-1.3-3.6-3.9-4.5-7.8-6.2Z"/>
    <path class="st1" d="M250,88c-.9-5.6-4.9-6.2-4.8-11.8.2-6,4.6-9,5.6-13.2,2.6,5.9,5.5,6.9,4.3,13.6-1.1,6-4.4,7-5.1,11.4Z"/>
    <path class="st2" d="M252.5,61c3.7,1.1,5.3-1.2,8.7.5,3.6,1.9,4.2,5.5,6.5,7.4-4.4-.2-5.9,1.4-9.6-1.4-3.4-2.5-3-4.8-5.5-6.5Z"/>
    <path class="st0" d="M228.9,53.9c5.2-5.7,9.2-12.1,25.7-14.9-33.1,1.5-20.1,26.2-64.2,21.6-9-3.9-16.1-2-22.4-7.4.8,1.6,1.1,3.6.7,6l-.4,2.6c12.7,3.3,36.6-4.1,28.9,20.8,5-9.2,3.7-14.6-.8-18.4,17.2.3,24.6-3,29.5-7.3,15.1-5.6,20.8-2.6,24.6,3.6-3.1-8.9-13.2-9.1-21.6-6.5Z"/>
  </g>
</svg>